<?xml version="1.0" standalone="no"?><!DOCTYPE svg PUBLIC "-//W3C//DTD SVG 1.1//EN" "http://www.w3.org/Graphics/SVG/1.1/DTD/svg11.dtd"><svg t="1518095808398" class="icon" style="" viewBox="0 0 1024 1024" version="1.1" xmlns="http://www.w3.org/2000/svg" p-id="2640" xmlns:xlink="http://www.w3.org/1999/xlink" width="200" height="200"><defs><style type="text/css"></style></defs><path d="M365.702656 438.894592l292.552704 0 0-109.707264q0-60.567552-42.8544-103.421952t-103.421952-42.8544-103.421952 42.8544-42.8544 103.421952l0 109.707264zm475.398144 54.853632l0 329.121792q0 22.85568-15.998976 38.854656t-38.854656 15.998976l-548.53632 0q-22.85568 0-38.854656-15.998976t-15.998976-38.854656l0-329.121792q0-22.85568 15.998976-38.854656t38.854656-15.998976l18.284544 0 0-109.707264q0-105.136128 75.423744-180.559872t180.559872-75.423744 180.559872 75.423744 75.423744 180.559872l0 109.707264 18.284544 0q22.85568 0 38.854656 15.998976t15.998976 38.854656z" p-id="2641"></path></svg>